<svg xmlns="http://www.w3.org/2000/svg" width="4096" height="1024" viewbox="0 0 269 48" viewBox="0 0 284 48">
    <path d="M113 2.43h4.93v33.53H113zM49.5 14.04c-6.31 0-11.45 4.82-11.45 11.46 0 6.6 5.14 11.46 11.45 11.46S60.95 32.1 60.95 25.5c0-6.64-5.14-11.46-11.45-11.46zm0 18.4c-3.46 0-6.44-2.86-6.44-6.94 0-4.12 2.98-6.94 6.44-6.94 3.46 0 6.44 2.82 6.44 6.94 0 4.08-2.98 6.94-6.44 6.94zm25-18.35c-6.31 0-11.45 4.82-11.45 11.46 0 6.6 5.14 11.46 11.45 11.46s11.45-4.86 11.45-11.46c0-6.65-5.14-11.46-11.45-11.46zm0 18.4c-3.46 0-6.44-2.86-6.44-6.94 0-4.12 2.98-6.94 6.44-6.94s6.44 2.82 6.44 6.94c0 4.07-2.98 6.94-6.44 6.94zm30.73-15.84h-.17c-1.13-1.34-3.3-2.56-6.03-2.56-5.73 0-10.98 5.03-10.98 11.5C88.05 32.01 93.3 37 99.03 37c2.73 0 4.9-1.22 6.03-2.6h.17v1.65c0 4.38-2.34 6.73-6.12 6.73-3.08 0-4.99-2.21-5.77-4.08l-4.38 1.82c1.26 3.04 4.6 6.77 10.15 6.77 5.9 0 10.89-3.47 10.89-11.93V15h-4.77v1.65zm-5.78 15.84c-3.47 0-6.38-2.91-6.38-6.9 0-4.04 2.91-6.99 6.38-6.99 3.43 0 6.12 2.95 6.12 6.99 0 3.99-2.69 6.9-6.12 6.9zm-71.22-4.08c1.39-1.39 2.32-3.42 2.67-6.41H19.22v-4.76H35.6c.17.87.3 2.06.3 3.2 0 3.66-1 8.19-4.22 11.41-3.14 3.27-7.14 5.01-12.46 5.01C9.38 36.86 1.1 28.84 1.1 19S9.38 1.14 19.22 1.14c5.44 0 9.32 2.13 12.24 4.92L28.02 9.5c-2.09-1.96-4.92-3.48-8.8-3.48-7.19 0-12.81 5.79-12.81 12.98s5.62 12.98 12.81 12.98c4.66 0 7.32-1.87 9.01-3.57zm103.54 4.08c-2.56 0-4.38-1.17-5.55-3.47l15.32-6.34-.52-1.3c-.95-2.56-3.86-7.29-9.81-7.29-5.9 0-10.81 4.64-10.81 11.46 0 6.42 4.86 11.46 11.37 11.46 5.25 0 8.29-3.21 9.55-5.08l-3.91-2.6c-1.3 1.9-3.08 3.16-5.64 3.16zm-.39-13.98c2 0 3.69 1 4.25 2.43l-10.24 4.25c-.13-4.42 3.43-6.68 5.99-6.68z" fill="#FFF" opacity="1"/>

<path fill="#ffffff" opacity="1" d="M158.52408000000003 35.9008L158.52408000000003 9.066359999999996L167.07008000000002 9.066359999999996L167.07008000000002 5.306119999999997L146.04692 5.306119999999997L146.04692 9.066359999999996L154.59292000000002 9.066359999999996L154.59292000000002 35.9008zM171.85584 35.9008L171.85584 24.449159999999996C171.85584 20.603459999999995 174.59056 18.338769999999993 177.28255000000001 18.338769999999993C178.13715000000002 18.338769999999993 178.82083 18.424229999999994 179.37632000000002 18.637879999999996L180.87187 14.963099999999994C180.06 14.621259999999996 179.2054 14.450339999999994 177.9235 14.450339999999994C175.74427 14.450339999999994 172.71044 15.988619999999994 171.85584 18.381499999999996L171.68492 18.381499999999996L171.68492 14.963099999999994L167.92468000000002 14.963099999999994L167.92468000000002 35.9008zM191.63983000000002 36.58448C196.46832 36.58448 199.54488 33.849759999999996 200.78405 30.85865999999999L197.28019 29.405839999999994C196.16921000000002 32.055099999999996 193.86179 32.99516 191.55437 32.99516C188.30689 32.99516 185.10214000000002 30.602279999999997 184.88849000000002 26.15835999999999L201.425 26.15835999999999C201.425 26.15835999999999 201.46773000000002 25.731059999999996 201.46773000000002 25.431949999999993C201.46773000000002 18.680609999999994 197.45111000000003 14.279419999999995 191.21253000000002 14.279419999999995C185.05941 14.279419999999995 180.95733 19.492479999999993 180.95733 25.431949999999993C180.95733 31.755989999999994 185.23033 36.58448 191.63983000000002 36.58448zM197.28019 22.910879999999995L185.14487000000003 22.910879999999995C185.91401000000002 19.834319999999995 188.22143 17.868739999999995 191.12707 17.868739999999995C195.61372 17.868739999999995 197.15200000000002 21.073489999999996 197.28019 22.910879999999995zM208.81729 14.963099999999994L205.05705 14.963099999999994L205.05705 35.9008L208.98821 35.9008L208.98821 24.320969999999992C208.98821 21.116219999999995 211.08198000000002 17.868739999999995 214.50038 17.868739999999995C217.49148000000002 17.868739999999995 219.67071 19.321559999999995 219.67071 23.680019999999995L219.67071 35.9008L223.60187000000002 35.9008L223.60187000000002 23.081799999999994C223.60187000000002 17.911469999999994 220.95261 14.279419999999995 215.61136000000002 14.279419999999995C212.74845000000002 14.279419999999995 210.09919000000002 15.945889999999995 208.98821 17.868739999999995L208.81729 17.868739999999995zM236.97636 36.58448C240.3093 36.58448 242.91583000000003 34.918009999999995 244.11227000000002 32.99516L244.28319000000002 32.99516L244.28319000000002 35.9008L248.04343 35.9008L248.04343 5.306119999999997L244.11227000000002 5.306119999999997L244.11227000000002 14.963099999999994L244.28319000000002 17.868739999999995L244.11227000000002 17.868739999999995C242.91583000000003 15.945889999999995 240.3093 14.279419999999995 236.97636 14.279419999999995C231.67784 14.279419999999995 227.02027 19.022449999999996 227.02027 25.431949999999993C227.02027 31.84144999999999 231.67784 36.58448 236.97636 36.58448zM237.61731000000003 32.99516C234.11345 32.99516 230.95143000000002 30.132249999999996 230.95143000000002 25.431949999999993C230.95143000000002 20.731649999999995 234.11345 17.868739999999995 237.61731000000003 17.868739999999995C241.12117 17.868739999999995 244.28319000000002 20.646189999999994 244.28319000000002 25.431949999999993C244.28319000000002 30.217709999999993 241.12117 32.99516 237.61731000000003 32.99516zM260.3924 36.58448C265.30635 36.58448 268.63929 33.72157 268.63929 30.004059999999992C268.63929 27.44025999999999 267.01555 24.876459999999994 262.87074 23.893669999999993L258.72593 22.910879999999995C257.05946 22.52630999999999 255.94848000000002 21.799899999999994 255.94848000000002 20.475269999999995C255.94848000000002 18.766069999999996 257.87133 17.783279999999994 260.09329 17.783279999999994C262.14433 17.783279999999994 264.06718 18.595149999999993 264.87905 20.560729999999996L268.29745 19.150639999999996C267.01555 15.945889999999995 263.85353000000003 14.279419999999995 260.22148000000004 14.279419999999995C255.86302 14.279419999999995 251.93186000000003 16.715029999999995 251.93186000000003 20.517999999999994C251.93186000000003 24.192779999999996 255.60664000000003 25.859249999999992 257.52949 26.329279999999994L261.75976 27.354799999999994C263.98172 27.910289999999993 264.62267 29.063999999999997 264.62267 30.132249999999996C264.62267 31.88417999999999 262.87074 33.080619999999996 260.43513 33.080619999999996C257.91406 33.080619999999996 255.86302 31.798719999999992 254.75204000000002 29.149459999999994L251.24818000000002 30.602279999999997C252.48735000000002 33.593379999999996 255.35026000000002 36.58448 260.3924 36.58448z"/>
<rect fill="none" width="269" height="48"/>
</svg>