<?xml version="1.0" encoding="utf-8"?>
<!-- Generator: Adobe Illustrator 18.1.1, SVG Export Plug-In . SVG Version: 6.00 Build 0)  -->
<!DOCTYPE svg PUBLIC "-//W3C//DTD SVG 1.1//EN" "http://www.w3.org/Graphics/SVG/1.1/DTD/svg11.dtd">
<svg version="1.1" id="Layer_1" xmlns="http://www.w3.org/2000/svg" xmlns:xlink="http://www.w3.org/1999/xlink" x="0px" y="0px"
	 viewBox="0 0 273.7 94.9" width="4096" height="1024" enable-background="new 0 0 273.7 94.9" xml:space="preserve">
<g>
	<g>
		<g>
			<path fill="#4788F2" d="M112.6,41.6c0.7,0.6,2.2,1.8,2.2,4.1c0,2.3-1.3,3.3-2.6,4.3c-0.4,0.4-0.8,0.8-0.8,1.5
				c0,0.7,0.5,1,0.8,1.3l1.1,0.8c1.3,1.1,2.6,2.2,2.6,4.3c0,2.9-2.8,5.8-8,5.8c-4.4,0-6.5-2.1-6.5-4.4c0-1.1,0.5-2.6,2.3-3.7
				c1.9-1.2,4.4-1.3,5.8-1.4c-0.4-0.5-0.9-1.1-0.9-2.1c0-0.5,0.2-0.8,0.3-1.2c-0.3,0-0.7,0.1-1,0.1c-3.2,0-5-2.4-5-4.8
				c0-1.4,0.6-3,1.9-4.1c1.7-1.4,3.8-1.7,5.4-1.7h6.3l-1.9,1.1H112.6z M110.5,55.1c-0.2,0-0.4,0-0.7,0c-0.3,0-1.9,0.1-3.2,0.5
				c-0.7,0.2-2.6,1-2.6,3.1c0,2.2,2.1,3.7,5.3,3.7c2.9,0,4.5-1.4,4.5-3.3C113.8,57.6,112.8,56.8,110.5,55.1z M111.3,49.3
				c0.7-0.7,0.8-1.7,0.8-2.2c0-2.2-1.3-5.6-3.8-5.6c-0.8,0-1.6,0.4-2.1,1c-0.5,0.6-0.7,1.5-0.7,2.3c0,2,1.2,5.4,3.8,5.4
				C110,50.2,110.9,49.8,111.3,49.3z"/>
			<path fill="#F3B32A" d="M93.5,54.6c-4.8,0-7.4-3.8-7.4-7.2c0-4,3.2-7.4,7.8-7.4c4.5,0,7.2,3.5,7.2,7.2
				C101.2,50.8,98.4,54.6,93.5,54.6z M97.3,52.2c0.7-1,0.9-2.2,0.9-3.4c0-2.7-1.3-7.8-5-7.8c-1,0-2,0.4-2.7,1
				c-1.2,1.1-1.4,2.4-1.4,3.7c0,3,1.5,8,5.2,8C95.4,53.7,96.6,53.1,97.3,52.2z"/>
			<path fill="#DA453D" d="M77.1,54.6c-4.8,0-7.4-3.8-7.4-7.2c0-4,3.2-7.4,7.8-7.4c4.5,0,7.2,3.5,7.2,7.2
				C84.8,50.8,82,54.6,77.1,54.6z M80.9,52.2c0.7-1,0.9-2.2,0.9-3.4c0-2.7-1.3-7.8-5-7.8c-1,0-2,0.4-2.7,1c-1.2,1.1-1.4,2.4-1.4,3.7
				c0,3,1.5,8,5.1,8C79,53.7,80.2,53.1,80.9,52.2z"/>
			<path fill="#4788F2" d="M67.4,54.2l-4.4,1c-1.8,0.3-3.4,0.5-5,0.5c-8.4,0-11.6-6.2-11.6-11.1c0-5.9,4.5-11.4,12.3-11.4
				c1.6,0,3.2,0.2,4.7,0.6c2.3,0.6,3.4,1.4,4,1.9l-2.5,2.4l-1.1,0.2l0.8-1.2c-1-1-2.9-2.9-6.5-2.9c-4.8,0-8.4,3.7-8.4,9
				c0,5.8,4.1,11.2,10.8,11.2c2,0,3-0.4,3.9-0.8v-4.9L59.6,49l2.4-1.3h6.5l-0.8,0.8c-0.2,0.2-0.2,0.2-0.3,0.5c0,0.3-0.1,1.2-0.1,1.5
				V54.2z"/>
			<path fill="#1E9C5B" d="M122.2,53.3c-1-0.1-1.2-0.3-1.2-1.5v-0.3v-17c0-0.1,0-0.1,0-0.2c0.1-1.1,0.4-1.3,1.4-1.8h-4.4l-2.3,1.1
				h2.3v0l0,0v17.9v1c0,0.6-0.1,0.7-0.8,1.6h5.4l1.1-0.7C123.3,53.4,122.8,53.3,122.2,53.3z"/>
			<path fill="#DA453D" d="M134.6,53.6c-0.3,0.2-0.7,0.4-1,0.5c-1,0.5-2,0.6-2.9,0.6c-1,0-2.5-0.1-4-1.2c-2.1-1.5-3.1-4.1-3.1-6.4
				c0-4.7,3.8-7,6.9-7c1.1,0,2.2,0.3,3.1,0.8c1.5,1,1.9,2.3,2.1,3l-7.1,2.9l-2.3,0.2c0.8,3.9,3.4,6.1,6.2,6.1c1.5,0,2.7-0.5,3.7-1.1
				L134.6,53.6z M131.8,44.5c0.6-0.2,0.9-0.4,0.9-0.8c0-1.2-1.4-2.6-3-2.6c-1.2,0-3.5,0.9-3.5,4.2c0,0.5,0.1,1.1,0.1,1.6L131.8,44.5
				z"/>
		</g>
	</g>
	<g>
		<path fill="#58595B" d="M150.8,54.1h-1.2V38.7h-5.4v-1.1h11.9v1.1h-5.4V54.1z"/>
		<path fill="#58595B" d="M162.9,41.6c0.5,0,1.1,0.1,1.7,0.2l-0.2,1.1c-0.5-0.1-1-0.2-1.6-0.2c-1,0-1.9,0.4-2.6,1.3
			c-0.7,0.9-1,2-1,3.4v6.8h-1.1V41.8h0.9l0.1,2.2h0.1c0.5-0.9,1-1.5,1.6-1.9C161.4,41.8,162.1,41.6,162.9,41.6z"/>
		<path fill="#58595B" d="M171.8,54.3c-1.8,0-3.2-0.5-4.2-1.6c-1-1.1-1.5-2.6-1.5-4.6c0-2,0.5-3.5,1.4-4.7c1-1.2,2.3-1.8,3.9-1.8
			c1.4,0,2.6,0.5,3.4,1.5c0.8,1,1.3,2.4,1.3,4.1v0.9h-8.8c0,1.7,0.4,3,1.2,3.9c0.8,0.9,1.9,1.3,3.3,1.3c0.7,0,1.3,0,1.8-0.1
			c0.5-0.1,1.2-0.3,2-0.6v1c-0.7,0.3-1.3,0.5-1.9,0.6C173.1,54.3,172.5,54.3,171.8,54.3z M171.5,42.6c-1.2,0-2.1,0.4-2.8,1.2
			c-0.7,0.8-1.1,1.9-1.3,3.4h7.6c0-1.4-0.3-2.5-0.9-3.3C173.4,43,172.5,42.6,171.5,42.6z"/>
		<path fill="#58595B" d="M187.8,54.1v-8c0-1.2-0.3-2.1-0.8-2.7c-0.5-0.6-1.3-0.8-2.4-0.8c-1.5,0-2.5,0.4-3.2,1.1
			c-0.7,0.7-1,1.9-1,3.6v6.8h-1.1V41.8h0.9l0.2,1.7h0.1c0.8-1.3,2.2-1.9,4.3-1.9c2.8,0,4.2,1.5,4.2,4.5v8H187.8z"/>
		<path fill="#58595B" d="M197.2,41.6c0.9,0,1.7,0.2,2.3,0.5c0.6,0.3,1.2,0.9,1.7,1.7h0.1c0-0.9-0.1-1.9-0.1-2.8v-4.4h1.1v17.6h-0.7
			l-0.3-1.9h-0.1c-0.9,1.4-2.3,2.1-4,2.1c-1.7,0-3-0.5-3.9-1.6c-0.9-1.1-1.3-2.6-1.3-4.6c0-2.1,0.4-3.7,1.3-4.9
			C194.2,42.2,195.5,41.6,197.2,41.6z M197.2,42.6c-1.3,0-2.3,0.5-3,1.4c-0.7,0.9-1,2.3-1,4.1c0,3.5,1.3,5.2,4,5.2
			c1.4,0,2.4-0.4,3-1.2s1-2.1,1-4V48c0-1.9-0.3-3.3-1-4.1C199.6,43,198.6,42.6,197.2,42.6z"/>
		<path fill="#58595B" d="M213.8,50.9c0,1.1-0.4,1.9-1.3,2.5c-0.8,0.6-2,0.9-3.6,0.9c-1.6,0-2.9-0.3-3.9-0.8v-1.2
			c1.2,0.6,2.5,0.9,3.9,0.9c1.2,0,2.1-0.2,2.8-0.6c0.6-0.4,0.9-0.9,0.9-1.6c0-0.6-0.2-1.1-0.8-1.6s-1.3-0.8-2.5-1.2
			c-1.2-0.4-2.1-0.8-2.6-1.1c-0.5-0.3-0.9-0.7-1.1-1.1c-0.3-0.4-0.4-0.9-0.4-1.5c0-0.9,0.4-1.6,1.2-2.2c0.8-0.5,1.8-0.8,3.2-0.8
			c1.3,0,2.6,0.2,3.8,0.7l-0.4,1c-1.2-0.5-2.3-0.7-3.3-0.7c-1,0-1.8,0.2-2.4,0.5c-0.6,0.3-0.9,0.8-0.9,1.4c0,0.6,0.2,1.2,0.7,1.5
			s1.3,0.8,2.7,1.3c1.1,0.4,1.9,0.8,2.4,1.1s0.9,0.7,1.1,1.1S213.8,50.4,213.8,50.9z"/>
	</g>
</g>
</svg>
